<svg id="Capa_1" enable-background="new 0 0 512.192 512.192" height="512" viewBox="0 0 512.192 512.192" width="512" xmlns="http://www.w3.org/2000/svg"><g><g><g><path d="m429.839 504.692h-347.485c-.271-4.663-.271-9.229-.058-13.649 1.793-37.651 19.843-72.568 48.527-97.025 31.376-26.763 65.161-38.861 77.797-42.721 2.342-.715 4.727-1.231 7.115-1.771 1.906-.431 3.553-1.184 4.969-2.183 10.673-7.454 8.579-28.5 8.579-28.5h53.626s-2.094 21.045 8.579 28.5c1.416 1 3.063 1.752 4.969 2.183 2.388.54 4.774 1.056 7.115 1.771 12.636 3.86 46.421 15.958 77.797 42.721 28.684 24.458 46.734 59.375 48.527 97.025.214 4.42.214 8.986-.057 13.649z" fill="#ffa78f"/></g><g><path d="m429.836 504.691h-19.55c0-2.19-.05-4.35-.15-6.48-1.79-37.65-19.65-69.71-48.34-94.17-16.19-13.82-34.76-24.85-54.53-32.72-9.68-3.85-20.29-4.91-29.87-8.68-7.52-2.95-11.01-10.53-12.6-17.98-.24-1.16-2.88-19.43-2.12-19.43 0-.03-.01-6.36-.02-6.39h20.25s-2.09 21.05 8.58 28.5c1.41.998 3.051 1.748 4.947 2.178 2.397.544 4.792 1.059 7.142 1.777 12.641 3.862 46.42 15.961 77.79 42.725 28.69 24.45 46.74 59.37 48.53 97.02.211 4.42.211 8.989-.059 13.65z" fill="#f89580"/></g><g><path d="m369.596 504.911h-227l.02-.22 5.06-65.921c.572-7.451 3.255-14.56 7.593-20.645 14.209-19.931 14.994-40.455 14.317-50.383 14.77-7.9 27.66-12.75 35.64-15.37 6.29 22.93 4.48 46.25 4.48 46.25l46.39 24.32 46.39-24.32s-1.81-23.32 4.48-46.25c7.98 2.62 20.87 7.47 35.64 15.37-.677 9.929.107 30.452 14.317 50.383 4.338 6.085 7.021 13.194 7.593 20.645l5.06 65.921z" fill="#528fd8"/></g><g><path d="m344.596 391.001c-11.69-7.88-24.25-14.47-37.33-19.68-1.23-.49-2.48-.93-3.74-1.34.71-5.61 1.8-11.62 3.44-17.61.48.16.97.32 1.48.5.03 0 .05.01.07.02.78.26 1.59.54 2.44.85 2.984 1.088 5.907 2.161 8.85 3.34 2.67 1.07 5.53 2.29 8.55 3.66 1.948.884 3.861 1.81 5.79 2.7.39.18.78.37 1.17.57 2.37 1.16 4.8 2.4 7.29 3.73-.36 5.299-.31 13.619 1.99 23.26z" fill="#0473ce"/></g><g><path d="m308.624 280.954c-5.68 12.563-4.035 26.086 3.344 38.415 6.932 11.582 16.862 21.342 22.406 33.649 10.906 24.214 6.309 55.795-12.372 75.008-5.775 5.939-13.397 10.311-21.462 11.888-4.598.899-6.158 6.858-2.37 9.615.11.08.215.15.314.208 23.81 14.06 64.939 9.442 86.712-6.225 18.618-13.396 30.163-35.347 35.297-57.307 11.857-50.718-13.336-129.664-75.988-127.592-15.315.507-29.408 8.023-35.881 22.341z" fill="#433f43"/></g><g><path d="m420.496 386.211c-5.14 21.96-16.68 43.91-35.3 57.3-13.18 9.49-33.47 14.93-52.71 14.61 11.64-2.36 22.5-6.68 30.64-12.54 18.61-13.39 30.16-35.35 35.29-57.3 11.29-48.26-10.98-122.08-67.14-127.34 4.19-1.4 8.65-2.18 13.23-2.33 62.65-2.071 87.84 76.879 75.99 127.6z" fill="#383538"/></g><g><path d="m390.89 84.359c-5.714-12.177-13.483-23.365-23.209-32.681-28.972-27.747-70.97-44.179-111.032-44.178-.185 0-.368.007-.552.008-.185-.001-.368-.008-.552-.008-40.062 0-82.061 16.431-111.032 44.178-9.727 9.316-17.495 20.504-23.209 32.681-28.011 59.695-20.725 156.358 37.052 196.839 18.497 12.959 37.414 17.435 59.564 18.11 2.919.089 73.435.089 76.354 0 22.15-.675 41.067-5.15 59.564-18.11 57.777-40.481 65.062-137.144 37.052-196.839z" fill="#433f43"/></g><g><path d="m353.836 281.2c-17.87 12.52-36.12 17.12-57.31 18.02 13.28-2.52 25.59-7.36 37.72-15.86 57.78-40.48 65.06-137.14 37.05-196.84-5.71-12.18-13.48-23.36-23.21-32.68-28.97-27.75-70.97-44.18-111.03-44.18-.19 0-.37.01-.55.01-.19 0-.37-.01-.56-.01-2.29 0-4.58.05-6.88.16 8.81-1.53 17.69-2.32 26.48-2.32.18 0 .37.01.55.01s.37-.01.55-.01c40.06 0 82.06 16.43 111.03 44.18 9.73 9.31 17.5 20.5 23.21 32.68 28.01 59.69 20.73 156.36-37.05 196.84z" fill="#383538"/></g><g><path d="m353.739 129.574 11.823 21.225v68.259c0 3.73-.188 7.421-.553 11.052-2.585 25.815-14.141 48.985-31.509 66.352-19.805 19.805-47.169 32.061-77.405 32.061-56.731 0-103.377-43.153-108.913-98.413-.365-3.631-.553-7.322-.553-11.052v-72.188l10.493-17.295h196.617z" fill="#ffcebf"/></g><g><path d="m353.739 121.478 11.827 29.321v68.259c0 3.73-.19 7.42-.56 11.05-2.58 25.82-14.14 48.99-31.51 66.35-19.8 19.81-47.16 32.06-77.4 32.06-3.37 0-6.71-.15-10-.46 26.25-2.36 49.81-14 67.4-31.6 17.37-17.36 28.93-40.53 31.51-66.35.37-3.63.56-7.32.56-11.05v-97.58z" fill="#ffb09e"/></g><g><path d="m365.562 199.331v19.726c0 3.73-.188 7.421-.553 11.052-2.585 25.815-14.141 48.985-31.509 66.352-19.805 19.805-47.169 32.061-77.405 32.061-56.731 0-103.377-43.153-108.913-98.413-.365-3.631-.553-7.322-.553-11.052v-19.726s22.625 34.461 82.023 43.875c18.174 2.88 36.712 2.88 54.886 0 59.399-9.413 82.024-43.875 82.024-43.875z" fill="#f5f8f9"/></g><g><path d="m365.566 199.328v19.73c0 3.73-.19 7.42-.56 11.05-2.58 25.82-14.14 48.99-31.51 66.35-19.8 19.81-47.16 32.06-77.4 32.06-2.521 0-5.009-.056-7.52-.26-.83-.05-1.66-.12-2.48-.2 26.25-2.36 49.81-14 67.4-31.6 17.37-17.36 28.93-40.53 31.51-66.35.37-3.63.56-7.32.56-11.05v-.39c13.98-10.17 20-19.34 20-19.34z" fill="#d9e7ec"/></g><g><path d="m346.019 85.447c-14.863-18.52-36.314-30.432-59.281-35.693-20.201-4.627-41.055-4.633-61.284 0-22.967 5.261-44.417 17.173-59.281 35.693-12.799 15.948-19.543 35.915-19.543 56.364v6.994s31.893 9.598 34.357 10.189c7.313 1.756 14.679 3.292 22.089 4.582 8.565 1.491 23.112 2.609 31.745 3.36 0 0 8.915-21.062 21.274-30.513 12.359 9.451 21.274 30.513 21.274 30.513 8.633-.751 23.181-1.869 31.745-3.36 7.41-1.29 14.777-2.826 22.089-4.582 2.464-.592 34.357-10.189 34.357-10.189v-6.994c.002-20.449-6.742-40.415-19.541-56.364z" fill="#433f43"/></g><g><path d="m211.353 191.267c-4.143 0-7.5 3.357-7.5 7.5v13.454c0 4.143 3.357 7.5 7.5 7.5s7.5-3.357 7.5-7.5v-13.454c0-4.143-3.357-7.5-7.5-7.5z"/><path d="m300.839 191.267c-4.143 0-7.5 3.357-7.5 7.5v13.454c0 4.143 3.357 7.5 7.5 7.5s7.5-3.357 7.5-7.5v-13.454c0-4.143-3.357-7.5-7.5-7.5z"/><path d="m437.388 490.686c-1.175-24.663-9.112-48.667-22.553-69.603 5.707-9.835 10.118-21.01 12.96-33.169 5.3-22.667 3.533-50.471-4.727-74.375-1.353-3.916-5.626-5.993-9.538-4.64-3.915 1.353-5.992 5.623-4.64 9.538 7.374 21.341 8.98 46.036 4.299 66.063-5.371 22.973-16.869 41.769-32.376 52.927-17.055 12.272-51.125 17.854-73.395 8.422 7.377-2.436 14.318-6.792 19.959-12.592 20.338-20.917 26.156-55.957 13.833-83.317-3.618-8.032-8.763-14.865-13.739-21.474-2.845-3.779-5.535-7.387-7.912-11.118 6.867-4.454 13.319-9.657 19.244-15.581 2.07-2.07 4.04-4.226 5.94-6.435 4.599-2.293 9.047-4.941 13.398-7.99 5.997-4.201 11.478-8.981 16.472-14.231 7.116 3.979 13.564 9.637 19.296 16.987 2.549 3.266 7.261 3.846 10.527 1.301 3.266-2.548 3.848-7.261 1.301-10.527-6.31-8.089-13.49-14.575-21.387-19.411 36.128-49.214 38.118-127.461 13.329-180.288-6.305-13.435-14.652-25.181-24.812-34.911-30.245-28.969-73.692-46.263-116.218-46.262l-.513.008s-.593-.008-.597-.008c-42.524 0-85.971 17.295-116.215 46.262-10.159 9.73-18.507 21.477-24.813 34.912-29.807 63.526-20.9 163.821 39.54 206.167 4.341 3.042 8.776 5.688 13.362 7.98 3.1 3.599 6.427 7.031 9.98 10.265 12.766 11.617 27.768 20.144 43.938 25.17-.831 4.896-2.536 10.394-7.981 11.62-2.238.504-4.551 1.024-6.921 1.748-13.43 4.104-48.154 16.622-80.472 44.188-30.653 26.138-49.298 63.452-51.152 102.372-.234 4.855-.213 9.716.063 14.445.23 3.967 3.515 7.064 7.487 7.064h347.484c3.973 0 7.257-3.098 7.487-7.064.275-4.731.297-9.591.062-14.443zm-112.459-139.608c-8.111-3.371-14.777-5.614-19.167-6.955-3.614-1.104-9.107-1.222-11.624-4.359-.553-.69-4.112-8.719-3.276-8.978 5.343-1.656 10.555-3.689 15.597-6.097 2.823 4.513 5.965 8.727 9.031 12.798 3.454 4.588 6.762 8.989 9.439 13.591zm-176.137-209.454c-2.27-.685-4.73-.253-6.636 1.162-1.903 1.415-3.025 3.647-3.025 6.02v70.252c0 3.937.198 7.908.59 11.8 1.049 10.473 3.503 20.656 7.231 30.316-16.32-17.888-27.428-42.853-31.877-72.309-5.265-34.851-.398-72.727 13.018-101.318 5.519-11.758 12.788-22.003 21.608-30.452 27.52-26.36 67.088-42.096 105.842-42.095l.593.008.513-.008c38.755-.001 78.322 15.735 105.844 42.094 8.82 8.449 16.09 18.694 21.607 30.451 13.417 28.593 18.283 66.469 13.019 101.319-4.455 29.489-15.59 54.465-31.94 72.356 3.759-9.707 6.247-19.914 7.293-30.36.393-3.895.591-7.866.591-11.803l.003-68.273c-.006-2.825-1.363-5.518-3.632-7.2-2.267-1.683-5.235-2.201-7.935-1.388-21.925 6.587-30.934 9.23-32.044 9.506-7.251 1.741-14.526 3.25-21.625 4.486-6.701 1.167-17.506 2.118-25.888 2.831-3.66-7.342-11.349-20.952-21.29-28.554-2.689-2.057-6.422-2.057-9.111 0-9.941 7.602-17.63 21.212-21.29 28.554-8.382-.713-19.187-1.664-25.888-2.831-7.1-1.236-14.375-2.745-21.614-4.483-1.887-.468-21.83-6.432-33.957-10.081zm209.342 55.133c-2.18 2.762-7.467 8.833-16.426 15.439-11.188 8.25-30.566 19.042-59.343 23.604-17.432 2.762-35.107 2.763-52.539 0-47.785-7.574-70.436-32.376-75.696-38.96v-37.951c9.875 2.959 23.343 6.976 25.106 7.399 7.556 1.813 15.144 3.388 22.554 4.678 7.75 1.35 19.841 2.376 28.669 3.126 4.443.38 9.197.669 11.269-4.23 1.864-4.407 7.494-15.608 14.364-23.201 6.849 7.581 12.496 18.791 14.37 23.201 1.267 2.992 4.312 4.836 7.558 4.548l3.712-.317c8.828-.75 20.919-1.776 28.669-3.126 7.409-1.29 14.997-2.863 22.556-4.678 1.391-.335 9.83-2.822 25.119-7.404zm-170.644 97.735c-18.675-16.995-30.339-40.125-32.845-65.134-.342-3.397-.515-6.863-.515-10.301v-.725c13.22 11.53 36.654 26.466 73.349 32.281 18.988 3.01 38.246 3.01 57.234 0 36.691-5.814 60.129-20.751 73.349-32.281v.725c0 3.438-.173 6.903-.516 10.305-2.328 23.253-12.751 45.199-29.35 61.797-19.257 19.258-44.863 29.864-72.101 29.864-25.441 0-49.805-9.421-68.605-26.531zm37.509 58.998c6.582-4.597 9.611-12.202 10.958-19.211 6.603 1.149 13.337 1.744 20.14 1.744 6.822 0 13.553-.587 20.14-1.724 1.345 6.999 4.365 14.587 10.924 19.168 3.446 2.407 7.046 3.158 10.846 4.093-3.195 15.158-3.4 29.368-3.224 36.63l-38.687 20.282-38.686-20.282c.177-7.263-.029-21.474-3.224-36.634 3.768-.937 7.524-1.769 10.813-4.066zm-74.285 143.702 1.568-20.434c.317-4.13-2.773-7.735-6.903-8.052-4.129-.325-7.734 2.774-8.052 6.903l-1.657 21.582h-46.027c.003-1.923.051-3.857.144-5.793 1.658-34.801 18.389-68.215 45.903-91.676 8.693-7.415 17.569-13.658 26.104-18.888-1.074 9.42-4.317 21.271-12.633 32.935-5.197 7.291-8.297 15.737-8.963 24.424l-.178 2.313c-.317 4.131 2.772 7.735 6.902 8.053 4.154.324 7.735-2.774 8.053-6.902l.179-2.314c.457-5.965 2.608-11.797 6.221-16.865 13.437-18.846 15.955-38.12 15.877-50.278 6.36-3.236 21.675-9.633 22.33-9.88.082-.031.167-.064.249-.095 3.641 18.572 2.412 35.627 2.397 35.816-.232 2.989 1.339 5.83 3.995 7.223l46.39 24.32c2.182 1.143 4.783 1.143 6.965 0l46.39-24.32c2.652-1.391 4.223-4.231 3.995-7.217-.015-.194-1.243-17.247 2.396-35.817 1.12.421 2.282.869 3.49 1.347 2.674 1.061 11.402 4.885 13.127 5.7.958.453 1.926.917 2.909 1.399 3.078 18.74-2.471 38.969-15.262 52.124-4.901 5.039-11.125 8.504-17.524 9.756-5.102.997-9.125 4.927-10.251 10.009-1.113 5.025.768 10.019 4.89 13.019.335.244.659.456.931.614 11.161 6.591 25.033 9.445 39.105 9.445 8.467 0 16.996-1.049 25.058-2.925l2.647 34.475h-210.765zm225.811 0-2.998-39.038c6.025-2.392 11.489-5.272 16.048-8.552 5.824-4.191 11.158-9.245 15.932-15.029 10.037 17.416 15.948 36.891 16.898 56.831.093 1.935.141 3.867.144 5.789h-46.024z"/></g></g></g></svg>