<svg height="512pt" viewBox="0 0 512 512" width="512pt" xmlns="http://www.w3.org/2000/svg"><path d="m37.527344 107.441406-37.527344-80.414062 115.484375 28.546875 34.621094-55.394531 58.949219 50.527343 46.476562-50.605469 47.515625 50.617188 58.117187-50.71875 34.796876 55.675781 116.039062-27.6875-40.402344 79.453125h-44.691406l10.261719-20.492187-59.875 14.289062-25.175781-40.277343-51.828126 45.738281-44.4375-47.839844-43.480468 47.851563-52.996094-45.929688-25.347656 40.5625-62.429688-15.433594 10.050782 21.53125zm389.25 295.855469 10.390625 21-59.875-14.289063-25.175781 40.277344-51.828126-45.234375-44.4375 47.335938-43.480468-47.347657-52.996094 45.421876-25.347656-40.558594-62.429688 15.433594 10.050782-22.039063h-44.121094l-37.527344 80.921875 115.484375-28.546875 34.621094 55.394531 58.949219-50.53125 46.476562 50.605469 47.515625-50.617187 58.117187 50.71875 34.796876-55.675782 116.039062 27.691406-40.402344-79.960937zm-114.929688-199.902344v105.949219c0 30.3125-24.660156 54.972656-54.972656 54.972656s-54.972656-24.660156-54.972656-54.972656v-105.949219c0-30.3125 24.660156-54.972656 54.972656-54.972656s54.972656 24.660156 54.972656 54.972656zm-39.980468 0c0-8.265625-6.726563-14.992187-14.992188-14.992187-8.269531 0-14.992188 6.726562-14.992188 14.992187v105.949219c0 8.265625 6.722657 14.992188 14.992188 14.992188 8.265625 0 14.992188-6.726563 14.992188-14.992188zm66.964843-50.972656v111.945313c0 25.660156 26.691407 71.78125 34.871094 85.308593l5.832031 9.644531h24.363282l5.871093-9.414062c3.28125-5.257812 9.4375-15.441406 15.75-27.433594 6.074219 11.886719 11.992188 21.980469 15.152344 27.203125l5.832031 9.644531h24.542969l5.835937-9.644531c8.175782-13.527343 34.867188-59.648437 34.867188-85.308593v-111.945313h-39.980469v111.945313c0 5.960937-5.523437 19.875-13 35.089843-7.472656-15.203125-12.988281-29.113281-12.988281-35.089843v-111.945313h-39.980469v111.945313c0 5.882812-5.914062 20.167968-13.757812 35.582031-7.59375-15.394531-13.230469-29.539063-13.230469-35.582031v-111.945313zm-298.128906 206.898437h24.1875l5.902344-9.183593c3.449219-5.367188 9.984375-15.863281 16.625-28.1875 6.167969 12.117187 12.214843 22.425781 15.417969 27.722656l5.832031 9.644531h24.1875l5.902343-9.183594c8.714844-13.5625 37.15625-59.832031 37.15625-85.765624v-111.945313h-39.980468v111.945313c0 5.914062-6.265625 20.472656-14.503906 36.09375-7.722657-15.589844-13.484376-29.984376-13.484376-36.09375v-111.945313h-39.980468v111.945313c0 5.914062-6.261719 20.472656-14.5 36.09375-7.722656-15.589844-13.484375-29.984376-13.484375-36.09375v-111.945313h-39.980469v111.945313c0 25.660156 26.691406 71.78125 34.871094 85.308593zm0 0"/></svg>